<svg width="118" height="180" viewBox="0 0 118 180" fill="none" xmlns="http://www.w3.org/2000/svg">
<path d="M40.5153 2C66.7449 2 100.628 36.2235 111.097 59.008C117.254 72.4092 117.881 105.585 111.398 118.731C104.005 133.724 90.3283 145.052 75.806 152.513C65.6987 157.706 28.4611 177.067 17.4407 168.801C17.384 168.759 22.6091 166.451 22.7192 166.388C26.9243 164.002 30.2579 160.469 33.427 156.887C37.0597 152.78 41.6924 148.545 43.23 143.163C45.0863 136.666 43.7217 139.929 38.8564 143.314C31.1116 148.701 23.0834 155.042 14.5752 159.149C10.1733 161.274 -6.51232 163.367 7.48688 164.88C20.9034 166.33 32.8405 168.966 45.3414 174.08C49.348 175.719 66.2686 178.453 64.9474 178.453" stroke="#5200FE" stroke-width="3" stroke-linecap="round"/>
</svg>
