<svg width="100" height="100" viewBox="0 0 100 100" fill="none" xmlns="http://www.w3.org/2000/svg">
<path d="M50 100C43.2521 100 36.7036 98.6773 30.536 96.0693C24.5817 93.5513 19.2341 89.946 14.644 85.356C10.054 80.7659 6.44875 75.4183 3.93075 69.464C1.32271 63.2964 0 56.7479 0 50C0 43.2521 1.32271 36.7036 3.93075 30.536C6.44875 24.5817 10.054 19.2341 14.644 14.644C19.2355 10.0526 24.5817 6.44875 30.536 3.93075C36.7036 1.32271 43.2521 0 50 0C56.7479 0 63.2964 1.32271 69.464 3.93075C75.4183 6.44875 80.7645 10.054 85.356 14.644C89.9474 19.2341 93.5513 24.5817 96.0693 30.536C98.6773 36.7022 100 43.2507 100 50C100 56.7493 98.6773 63.2964 96.0693 69.4626C93.5513 75.4169 89.946 80.7632 85.356 85.3546C80.7659 89.946 75.4183 93.5499 69.464 96.0679C63.2978 98.6759 56.7493 99.9986 50 99.9986V100ZM50 7.20222C38.5679 7.20222 27.8213 11.6537 19.7368 19.7368C11.6524 27.8199 7.20222 38.5679 7.20222 50C7.20222 61.4321 11.6537 72.1787 19.7368 80.2632C27.8199 88.3476 38.5679 92.7978 50 92.7978C61.4321 92.7978 72.1787 88.3463 80.2632 80.2632C88.3476 72.1801 92.7978 61.4321 92.7978 50C92.7978 38.5679 88.3463 27.8213 80.2632 19.7368C72.1801 11.6524 61.4321 7.20222 50 7.20222Z" fill="#FEFEFE"/>
<path d="M28.2247 44.2286C28.2247 44.9737 28.3022 45.7037 28.4643 46.4059C28.6443 47.0998 28.9186 47.7258 29.287 48.2923C29.6554 48.8574 30.1443 49.3117 30.7441 49.6552C31.3438 49.989 32.0723 50.1524 32.9297 50.1524C33.787 50.1524 34.5155 49.989 35.1153 49.6552C35.715 49.3117 36.1956 48.8574 36.5723 48.2923C36.9407 47.7258 37.215 47.1012 37.3701 46.4059C37.5502 45.694 37.636 44.9654 37.636 44.2286C37.636 43.4917 37.5502 42.7023 37.3701 41.9737C37.2067 41.2452 36.9407 40.6026 36.5723 40.0444C36.2039 39.4696 35.715 39.0153 35.1153 38.6815C34.5155 38.338 33.787 38.1593 32.9297 38.1593C32.0723 38.1593 31.3438 38.3311 30.7441 38.6815C30.1443 39.0153 29.6637 39.4696 29.287 40.0444C28.9186 40.6095 28.6443 41.2535 28.4643 41.9737C28.3009 42.7023 28.2247 43.4474 28.2247 44.2286ZM24.4186 44.2286C24.4186 42.9086 24.6153 41.6829 25.0017 40.5596C25.3881 39.4197 25.9449 38.4253 26.6734 37.5845C27.402 36.7438 28.2939 36.0845 29.3396 35.6039C30.4117 35.1233 31.6028 34.8837 32.931 34.8837C34.2593 34.8837 35.4684 35.1233 36.5225 35.6039C37.5765 36.0845 38.4601 36.7438 39.1887 37.5845C39.9172 38.4253 40.474 39.4183 40.8604 40.5596C41.2454 41.6829 41.4435 42.9086 41.4435 44.2286C41.4435 45.5485 41.2468 46.723 40.8604 47.8463C40.474 48.9516 39.9172 49.9211 39.1887 50.7438C38.4601 51.5665 37.5682 52.2175 36.5225 52.6981C35.4684 53.1607 34.2773 53.392 32.931 53.392C31.5848 53.392 30.4103 53.1607 29.3396 52.6981C28.2856 52.2175 27.402 51.5665 26.6734 50.7438C25.9449 49.9211 25.3881 48.953 25.0017 47.8463C24.6153 46.723 24.4186 45.5153 24.4186 44.2286ZM44.0488 35.3048H47.8382L55.0654 47.1773H55.1166V35.3048H58.6831V52.9987H54.877L47.6679 41.151H47.6166V52.9987H44.0502V35.3048H44.0488ZM62.0335 35.3048H74.9864V38.579H65.8396V42.3685H74.2316V45.3948H65.8396V49.7327H75.1831V53.007H62.0335V35.3048Z" fill="#FEFEFE"/>
<path d="M26.9478 62.3934C26.9478 62.6247 26.9907 62.8228 27.0766 62.9848C27.1708 63.1483 27.2913 63.2757 27.4367 63.3879C27.5821 63.4904 27.7455 63.5596 27.9339 63.6109C28.1306 63.6621 28.3287 63.6884 28.5336 63.6884C28.6791 63.6884 28.8342 63.6718 28.9879 63.6455C29.1514 63.6025 29.2968 63.5513 29.4256 63.482C29.5627 63.4045 29.6735 63.302 29.7594 63.1815C29.8453 63.0527 29.8882 62.8906 29.8882 62.7009C29.8882 62.3837 29.6818 62.1441 29.2622 61.989C28.8508 61.8255 28.2843 61.6718 27.5475 61.5084C27.2469 61.4405 26.9478 61.3629 26.6555 61.2687C26.373 61.1663 26.1237 61.0458 25.9007 60.9003C25.6777 60.7369 25.4976 60.5485 25.3605 60.3172C25.2234 60.0776 25.1541 59.7951 25.1541 59.4516C25.1541 58.9543 25.2483 58.5513 25.4284 58.2341C25.625 57.9169 25.8744 57.669 26.1832 57.489C26.4921 57.3006 26.8425 57.1718 27.2289 57.1025C27.6154 57.025 28.017 56.982 28.4201 56.982C28.8231 56.982 29.2178 57.025 29.6029 57.1025C29.9879 57.1801 30.3314 57.3172 30.6403 57.5056C30.9492 57.694 31.1888 57.9433 31.3854 58.2604C31.5918 58.5693 31.7109 58.964 31.7455 59.435H29.7829C29.758 59.0319 29.6029 58.7577 29.3287 58.6206C29.0544 58.4751 28.7372 58.3976 28.3688 58.3976C28.2483 58.3976 28.1292 58.4059 27.9921 58.4239C27.855 58.4322 27.7262 58.4668 27.6154 58.5097C27.5129 58.561 27.4187 58.6302 27.3411 58.7327C27.2636 58.8186 27.2206 58.9474 27.2206 59.1012C27.2206 59.2895 27.2885 59.4446 27.427 59.5638C27.5641 59.6843 27.7359 59.7784 27.9492 59.8643C28.1721 59.9322 28.4201 60.0014 28.704 60.061C28.9865 60.1205 29.2705 60.1815 29.5613 60.2577C29.8619 60.3255 30.1528 60.4114 30.4353 60.5056C30.7262 60.6081 30.9838 60.7369 31.2068 60.9086C31.4298 61.0721 31.6098 61.2687 31.7469 61.5167C31.8841 61.7563 31.9533 62.0485 31.9533 62.4086C31.9533 62.9142 31.8508 63.3435 31.6444 63.6856C31.4478 64.0194 31.1901 64.2937 30.873 64.5001C30.5558 64.705 30.1874 64.8519 29.7677 64.928C29.3564 65.0139 28.945 65.0651 28.5156 65.0651C28.0863 65.0651 27.65 65.0222 27.2386 64.928C26.819 64.8422 26.4505 64.6884 26.1154 64.482C25.7982 64.2757 25.5323 64.0014 25.3176 63.6676C25.1112 63.3242 25.0004 62.8879 24.9838 62.3726H26.9464V62.3892L26.9478 62.3934ZM38.2289 60.2244C38.1347 59.6926 37.9547 59.2812 37.7054 59.007C37.4658 58.7327 37.0877 58.5873 36.5821 58.5873C36.2483 58.5873 35.9727 58.6469 35.7511 58.7674C35.5364 58.8782 35.3647 59.0167 35.2275 59.187C35.0987 59.3588 35.0129 59.5305 34.9533 59.7189C34.9021 59.9073 34.8757 60.079 34.8674 60.2244H38.2289ZM34.8688 61.5624C34.8951 62.248 35.0655 62.7452 35.3744 63.0458C35.6832 63.3546 36.1292 63.5084 36.7109 63.5084C37.1306 63.5084 37.4907 63.4059 37.7913 63.1995C38.0918 62.9848 38.2802 62.7535 38.348 62.5139H40.1652C39.8744 63.4391 39.4284 64.0915 38.8287 64.4945C38.2289 64.8892 37.5004 65.0859 36.6431 65.0859C36.0516 65.0859 35.5198 64.9917 35.0406 64.8034C34.5696 64.6067 34.1666 64.3228 33.8314 63.9724C33.5059 63.6122 33.2483 63.1926 33.06 62.6953C32.8882 62.1981 32.794 61.6579 32.794 61.0582C32.794 60.4585 32.8882 59.9433 33.0683 59.4557C33.2566 58.9585 33.5142 58.5305 33.8564 58.1787C34.1998 57.8103 34.6015 57.5278 35.0655 57.3131C35.5364 57.1081 36.0683 57.0042 36.6347 57.0042C37.2774 57.0042 37.8342 57.133 38.3065 57.3906C38.7774 57.6386 39.1721 57.9737 39.4727 58.4017C39.7816 58.8311 40.0045 59.3103 40.1417 59.8588C40.2788 60.4073 40.33 60.9737 40.2871 61.5651H34.8605H34.8688V61.5624ZM41.5212 57.2078H43.4838V58.6302H43.5087C43.6029 58.3906 43.74 58.1759 43.9034 57.9793C44.0669 57.7729 44.2552 57.5928 44.4699 57.4557C44.6846 57.3103 44.9159 57.1898 45.1555 57.1122C45.3951 57.0347 45.6528 56.9917 45.9104 56.9917C46.0475 56.9917 46.1929 57.0181 46.3647 57.0693V59.0319C46.2705 59.0153 46.15 58.9973 46.0129 58.989C45.8757 58.9723 45.7469 58.9627 45.6181 58.9627C45.2414 58.9627 44.9145 59.0305 44.6583 59.1593C44.3924 59.2881 44.1874 59.4682 44.0156 59.6912C43.8619 59.9059 43.7497 60.1718 43.6818 60.4627C43.6126 60.7632 43.5793 61.0804 43.5793 61.4308V64.8948H41.5129V57.205H41.5212V57.2078ZM51.3453 64.8976H49.0475L46.4672 57.2078H48.6361L50.222 62.4543H50.2469L51.8328 57.2078H53.8813L51.3356 64.8976H51.3453ZM56.866 56.025H54.7996V54.2854H56.866V56.025ZM54.7996 57.2161H56.866V64.9059H54.7996V57.2161ZM63.6209 59.9253C63.4838 59.0416 62.9782 58.6053 62.0946 58.6053C61.7691 58.6053 61.4852 58.6829 61.2636 58.8449C61.0406 58.9904 60.8522 59.1884 60.7068 59.4363C60.5696 59.676 60.4755 59.9419 60.4159 60.2424C60.3563 60.5347 60.33 60.8172 60.33 61.1081C60.33 61.3989 60.3563 61.6649 60.4159 61.9571C60.4755 62.248 60.5696 62.5056 60.6901 62.7452C60.8273 62.9765 61.0073 63.1649 61.2303 63.3117C61.4533 63.4571 61.7275 63.5347 62.0447 63.5347C62.5419 63.5347 62.9187 63.3976 63.1763 63.115C63.4505 62.8242 63.6223 62.446 63.6818 61.9668H65.6791C65.542 62.9862 65.1555 63.7674 64.5129 64.2978C63.8702 64.8297 63.0558 65.1039 62.053 65.1039C61.4879 65.1039 60.9727 65.0097 60.4935 64.8214C60.0309 64.6247 59.6278 64.3491 59.3023 64.007C58.9768 63.6635 58.7192 63.2521 58.5309 62.7729C58.3425 62.284 58.2566 61.7521 58.2566 61.1787C58.2566 60.6053 58.3425 60.0305 58.5059 59.525C58.6777 59.0111 58.9353 58.5651 59.2608 58.205C59.5863 57.8283 59.9893 57.5361 60.4699 57.3311C60.9408 57.1261 61.4893 57.0222 62.0987 57.0222C62.5447 57.0222 62.9727 57.0818 63.3757 57.2023C63.7954 57.3228 64.1638 57.5028 64.481 57.7507C64.8065 57.9904 65.0807 58.2909 65.2788 58.6593C65.4852 59.0194 65.596 59.4391 65.6306 59.9363H63.607L63.6237 59.928L63.6209 59.9253ZM71.9187 60.2341C71.8245 59.7023 71.6444 59.2909 71.3951 59.0167C71.1555 58.7424 70.7774 58.597 70.2719 58.597C69.9464 58.597 69.6638 58.6566 69.4408 58.7771C69.2262 58.8879 69.0544 59.025 68.9187 59.1967C68.7899 59.3685 68.704 59.5402 68.6444 59.7286C68.5932 59.9169 68.5669 60.0887 68.5586 60.2341H71.9187ZM68.5586 61.5707C68.5849 62.2563 68.7552 62.7535 69.0641 63.0541C69.373 63.3629 69.819 63.5167 70.4007 63.5167C70.8203 63.5167 71.1804 63.4142 71.481 63.2078C71.7816 62.9931 71.9699 62.7618 72.0378 62.5222H73.855C73.5641 63.4474 73.1181 64.0998 72.5184 64.5028C71.9187 64.9059 71.1901 65.0942 70.3328 65.0942C69.7414 65.0942 69.2095 65.0001 68.7303 64.8117C68.2594 64.615 67.8564 64.3311 67.5212 63.9807C67.1957 63.6206 66.9381 63.2009 66.7497 62.7037C66.578 62.2064 66.4838 61.6663 66.4838 61.0665C66.4838 60.4668 66.578 59.9516 66.758 59.464C66.9464 58.9668 67.204 58.5388 67.5461 58.187C67.8896 57.8186 68.2926 57.5361 68.7552 57.3214C69.2262 57.115 69.758 57.0125 70.3245 57.0125C70.9672 57.0125 71.5253 57.1413 71.9962 57.3989C72.4672 57.6469 72.8619 57.982 73.1624 58.41C73.4713 58.8394 73.6943 59.3186 73.8314 59.8671C73.9685 60.4156 74.0198 60.982 73.9768 61.5735H68.5503H68.5586V61.5707Z" fill="#FEFEFE"/>
</svg>
