<svg width="27" height="24" viewBox="0 0 27 24" fill="none" xmlns="http://www.w3.org/2000/svg">
<path d="M11 2H9C4 2 2 4 2 9V15C2 20 4 22 9 22H15C20 22 22 20 22 15V13" stroke="#565655" stroke-width="1.5" stroke-linecap="round" stroke-linejoin="round"/>
<path d="M6.76331 8.55232C8.13482 9.24331 10.062 9.78878 10.948 11.1178C11.7967 12.3908 13.2616 13.836 13.3874 15.4077C13.4483 16.1697 14.2778 14.435 14.3337 14.3352C14.7926 13.5156 15.3521 12.6761 15.7531 11.8433C16.7501 9.77267 18.1464 7.72798 19.738 6.08144C20.7558 5.0286 21.9782 4.36473 23.2288 3.6316C23.9319 3.21945 24.6675 2.6853 25.4999 2.6853" stroke="#5200FE" stroke-width="3" stroke-linecap="round"/>
</svg>
